<svg width="82" height="27" viewBox="0 0 82 27" fill="none" xmlns="http://www.w3.org/2000/svg">
<path d="M0.642029 21.8699V6.06345L14.5107 0.895996L22.0478 3.32774V24.6055L14.5107 26.896L0.642029 21.8699L14.5107 23.5524V5.15171L5.46573 7.27945V19.7423L0.642029 21.8699ZM36.8185 21.9807C34.6354 21.9807 32.8871 21.2555 31.5737 19.8049C30.2603 18.3544 29.6036 16.4674 29.6036 14.1436C29.6036 11.6467 30.2728 9.65497 31.6113 8.16849C32.9498 6.68189 34.7714 5.93866 37.0762 5.93866C39.202 5.93866 40.9145 6.66031 42.2136 8.10353C43.5127 9.54684 44.1623 11.4339 44.1623 13.7649C44.1623 16.2979 43.4966 18.3004 42.1653 19.7727C40.8339 21.2448 39.0518 21.9807 36.8185 21.9807ZM36.9474 7.5837C35.3297 7.5837 34.0163 8.17182 33.007 9.34809C31.9978 10.5244 31.4932 12.0687 31.4932 13.9811C31.4932 15.8934 31.9853 17.4324 32.9694 18.5978C33.9536 19.7633 35.2366 20.346 36.8185 20.346C38.5077 20.346 39.8391 19.7903 40.8125 18.679C41.7859 17.5677 42.2726 16.0125 42.2726 14.0135C42.2726 11.9641 41.8002 10.38 40.8554 9.26154C39.9106 8.14301 38.608 7.58374 36.9474 7.5837ZM50.5778 5.0714C49.5829 5.0714 48.7561 5.41304 48.0905 6.08779C47.4248 6.76253 47.0917 7.68068 47.0917 8.8425V10.6378H45.2169V12.1576H47.0918V21.723H48.8442V12.1576H53.1311V21.723H54.8835V12.1576H57.4556V10.6378H54.8835V8.92794C54.8835 7.36198 55.499 6.58172 56.7301 6.58172C57.1668 6.58172 57.5549 6.67184 57.8985 6.86669V5.27085C57.5835 5.14096 57.1633 5.0714 56.6265 5.0714C55.6316 5.0714 54.7954 5.41304 54.1298 6.08775C53.4641 6.76253 53.1311 7.68064 53.1311 8.84246V10.6377H48.8442V8.92794C48.8442 7.36193 49.4597 6.58168 50.6908 6.58168C51.1275 6.58168 51.5156 6.67184 51.8592 6.86665V5.27085C51.5442 5.14096 51.1146 5.07144 50.5778 5.0714ZM60.0163 7.82033C59.7014 7.82033 59.433 7.71211 59.2111 7.49559C58.9892 7.27912 58.8783 7.0049 58.8783 6.67291C58.8783 6.34095 58.9892 6.06493 59.2111 5.84484C59.433 5.62476 59.7014 5.51469 60.0163 5.51469C60.3384 5.51469 60.6122 5.62476 60.8376 5.84484C61.0631 6.06497 61.1758 6.34099 61.1759 6.67291C61.1758 6.99046 61.0631 7.26106 60.8376 7.48472C60.6122 7.70846 60.3384 7.82037 60.0163 7.82033ZM60.8752 21.7191H59.1145V10.6347H60.8752V21.7191ZM70.8786 21.2104C70.034 21.7227 69.0319 21.9789 67.8724 21.9789C66.3048 21.9789 65.0397 21.4647 64.077 20.4364C63.1143 19.408 62.6329 18.0748 62.6329 16.4367C62.6329 14.6109 63.1519 13.1442 64.1897 12.0364C65.2275 10.9287 66.6125 10.3749 68.3447 10.3749C69.311 10.3749 70.1628 10.5553 70.9 10.9161V12.7346C70.084 12.1573 69.2108 11.8686 68.2803 11.8686C67.1565 11.8686 66.235 12.2745 65.5156 13.0864C64.7963 13.8983 64.4366 14.9645 64.4366 16.2851C64.4366 17.5841 64.7748 18.6088 65.4512 19.3593C66.1276 20.1098 67.0348 20.4851 68.1729 20.485C69.1321 20.485 70.0339 20.1639 70.8786 19.5216L70.8786 21.2104ZM81.6419 16.6214H73.8795C73.9081 17.8554 74.2374 18.808 74.8673 19.479C75.4971 20.1502 76.3633 20.4857 77.4655 20.4857C78.7038 20.4857 79.8419 20.0744 80.8798 19.2517V20.9187C79.9135 21.6259 78.6358 21.9795 77.0468 21.9795C75.4936 21.9795 74.2732 21.4762 73.3856 20.4695C72.4981 19.4628 72.0543 18.0466 72.0543 16.2208C72.0543 14.4961 72.5392 13.0907 73.5091 12.0046C74.479 10.9186 75.6833 10.3756 77.122 10.3756C78.5607 10.3756 79.6737 10.8447 80.461 11.7828C81.2484 12.7209 81.642 14.0235 81.642 15.6905L81.6419 16.6214ZM79.8383 15.1168C79.8311 14.0921 79.5859 13.2947 79.1028 12.7245C78.6196 12.1545 77.9486 11.8694 77.0897 11.8694C76.2594 11.8694 75.5543 12.1689 74.9746 12.7678C74.3948 13.3668 74.0369 14.1498 73.9009 15.1168H79.8383Z" fill="#7A857D"/>
</svg>
