<svg width="160" height="21" viewBox="0 0 160 21" fill="none" xmlns="http://www.w3.org/2000/svg">
<path d="M14.9477 12.8096H4.31341V10.1711H18.0261C17.6663 9.05166 16.5069 8.01221 14.468 8.01221H4.5133C2.23452 8.01221 0.915228 8.85177 0.915228 10.6908V12.6497C0.915228 14.2489 2.2745 15.1684 4.27343 15.1684H15.0277V17.9669H0.55542C0.915228 19.4861 2.07461 20.2857 4.1535 20.2857H14.9877C17.2665 20.2857 18.3859 19.4061 18.3859 17.5271V15.5682C18.3859 13.8491 17.0666 12.9296 14.9477 12.8096ZM36.6561 8.05219H23.5431V20.3256H27.2611V15.6082H36.936C39.6145 15.6082 41.0937 14.6886 41.0937 12.5298V11.1705C41.0538 9.17159 39.3747 8.05219 36.6561 8.05219ZM37.8555 11.9701C37.8555 12.8496 37.6956 13.3294 36.2563 13.3294H27.2611L27.3011 10.1311H36.0964C37.6956 10.1311 37.8955 10.6108 37.8955 11.4504V11.9701H37.8555ZM53.4471 15.5282H45.5314L43.5724 17.6071H55.0063L56.9653 20.3256H61.3629L51.888 7.53247L49.6492 10.291L53.4471 15.5282ZM68.4791 10.1711H82.3917C82.0319 8.73183 80.6326 8.01221 78.6337 8.01221H68.2392C66.4402 8.01221 64.7211 8.73183 64.7211 10.6908V17.5671C64.7211 19.5261 66.4402 20.2457 68.2392 20.2457H78.7536C81.1523 20.2457 81.9919 19.566 82.3917 17.9269H68.4791V10.1711ZM98.7029 14.2489V12.17H87.4689V20.3256H104.06V18.0069H91.2269V14.2489H98.7029ZM87.8687 8.05219H104.62V10.211H87.8687V8.05219ZM114.934 8.05219H109.097L115.974 13.0895C116.973 12.4099 118.133 11.6902 119.172 11.0906L114.934 8.05219ZM123.41 14.3288C122.41 15.0085 121.411 15.7681 120.451 16.4877L125.649 20.2857H131.525L123.41 14.3288Z" fill="#7A857D"/>
<path d="M159.47 0.895996C127.488 2.73501 112.695 16.4077 109.377 19.646L108.698 20.2856H114.614C130.606 4.2542 153.594 1.41572 159.47 0.895996Z" fill="#7A857D"/>
</svg>
