<svg width="98" height="24" viewBox="0 0 98 24" fill="none" xmlns="http://www.w3.org/2000/svg">
<path fill-rule="evenodd" clip-rule="evenodd" d="M6.39833 10.1719C10.7892 8.65841 11.5366 4.71596 10.9761 1.09115C10.9761 0.960353 11.0882 0.86693 11.2003 0.904299C15.4043 2.9596 20.1315 7.44391 20.1315 14.1704C20.1315 19.3273 16.133 23.8863 10.3221 23.8863C8.24859 23.9806 6.20274 23.3817 4.50743 22.1841C2.81213 20.9865 1.56393 19.2585 0.959836 17.2727C0.355744 15.2869 0.430167 13.1565 1.17136 11.2177C1.91255 9.27886 3.2783 7.64211 5.05304 6.56573C5.16514 6.49099 5.31462 6.56573 5.31462 6.69652C5.37068 7.38785 5.55752 9.12552 6.32359 10.1719H6.39833Z" fill="#7A857D"/>
<path fill-rule="evenodd" clip-rule="evenodd" d="M32.5007 19.7945L32.8183 19.4208L33.8086 22.5598L33.6778 22.6906C32.9304 23.3819 31.8093 23.7369 30.3706 23.7369H30.3146C29.0066 23.7369 27.979 23.3632 27.269 22.6719C26.559 21.9619 26.1853 20.8969 26.1853 19.5516V10.994H23.6628V7.53737H26.1853V3.37071H30.0717V7.53737H33.1546V10.994H30.053V18.7108C30.053 19.0658 30.1464 20.2055 31.2301 20.2055C31.7906 20.2055 32.3138 20 32.5007 19.7758V19.7945ZM34.556 23.3819V7.55606H38.4424V23.3819H34.556ZM36.4805 1.09119C36.9416 1.0912 37.3924 1.22772 37.7761 1.48354C38.1598 1.73936 38.4591 2.10303 38.6364 2.52871C38.8137 2.9544 38.8611 3.42304 38.7724 3.87558C38.6838 4.32812 38.4632 4.7443 38.1385 5.07167C37.8137 5.39904 37.3993 5.62294 36.9475 5.71516C36.4956 5.80737 36.0266 5.76378 35.5996 5.58987C35.1725 5.41595 34.8064 5.11951 34.5476 4.73789C34.2887 4.35627 34.1486 3.90656 34.1449 3.44545C34.1449 2.17489 35.2099 1.09119 36.4805 1.09119ZM48.887 7.16368C52.2503 7.16368 54.1 8.99477 54.1 12.3393V23.3632H50.2136V13.2735C50.1389 11.4798 49.2794 10.6577 47.4483 10.6577C45.8041 10.6577 44.4775 11.6667 43.8048 12.5262V23.3632H39.9184V7.57474H43.8048V9.25635C44.9259 8.17265 46.7196 7.20105 48.887 7.20105V7.16368ZM67.0298 9.2003V1.76383H70.9162V23.4006H67.0298V21.7563C66.4351 22.3836 65.7197 22.884 64.9266 23.2276C64.1334 23.5712 63.279 23.7508 62.4147 23.7556C58.1733 23.7556 55.3332 20.4297 55.3332 15.4783C55.3332 10.5082 58.1733 7.18236 62.4147 7.18236C63.2809 7.18632 64.1371 7.36737 64.9308 7.71439C65.7244 8.06141 66.4387 8.56708 67.0298 9.2003ZM67.0298 12.5448C66.5967 11.9807 66.0432 11.5203 65.4097 11.1971C64.7762 10.8739 64.0785 10.696 63.3676 10.6764C60.9573 10.6764 59.3504 12.6009 59.3504 15.4783C59.3504 18.3371 60.9573 20.2616 63.3676 20.2616C64.7689 20.2616 66.3011 19.5142 67.0298 18.4305V12.5448ZM79.9969 7.18236C84.5933 7.18236 87.7884 10.7324 87.7884 15.7773V16.8423H76.0358C76.4281 19.0658 78.1845 20.4858 80.5761 20.4858C82.0896 20.4858 83.7525 19.8318 84.7054 18.8789L84.967 18.6547L86.8168 21.3079L86.6299 21.4761C84.8791 23.0284 82.5967 23.845 80.2585 23.7556C75.4005 23.7556 71.9812 20.3363 71.9812 15.4596C71.9434 14.383 72.1236 13.3097 72.5109 12.3044C72.8982 11.2991 73.4846 10.3824 74.235 9.60934C74.9854 8.83629 75.8842 8.22282 76.8775 7.80577C77.8709 7.38871 78.9382 7.17667 80.0156 7.18236H79.9969ZM76.0171 13.9088H83.9954C83.7712 11.5359 81.8093 10.4522 79.9969 10.4522C77.2689 10.4522 76.2413 12.5075 76.0171 13.9275V13.9088ZM97.1867 7.18236H97.467V11.1061L97.1307 11.0501C96.8504 10.994 96.4954 10.9567 96.1404 10.9567C94.8885 10.9567 93.1508 11.8348 92.4969 12.7691V23.3632H88.6105V7.55606H92.5156V9.31241C93.8048 7.96712 95.5051 7.18236 97.1867 7.18236Z" fill="#7A857D"/>
</svg>
