<svg width="89" height="28" viewBox="0 0 89 28" fill="none" xmlns="http://www.w3.org/2000/svg">
<path d="M46.9344 7.67978C46.9344 8.65275 46.1372 9.43654 45.1476 9.43654C44.1579 9.43654 43.3607 8.65275 43.3607 7.67978C43.3607 6.70681 44.1304 5.92302 45.1476 5.92302C46.1647 5.95005 46.9344 6.73383 46.9344 7.67978ZM39.5669 11.2203V11.6528C39.5669 11.6528 38.7147 10.5717 36.9003 10.5717C33.9039 10.5717 31.5672 12.8149 31.5672 15.923C31.5672 19.0041 33.8764 21.2744 36.9003 21.2744C38.7422 21.2744 39.5669 20.1663 39.5669 20.1663V20.6257C39.5669 20.8419 39.7319 21.0041 39.9518 21.0041H42.1786V10.8419H39.9518C39.7319 10.8419 39.5669 11.0311 39.5669 11.2203ZM39.5669 17.7338C39.1546 18.3284 38.3299 18.8419 37.3402 18.8419C35.5808 18.8419 34.2337 17.7609 34.2337 15.923C34.2337 14.0852 35.5808 13.0041 37.3402 13.0041C38.3024 13.0041 39.1821 13.5446 39.5669 14.1122V17.7338ZM43.828 10.8419H46.4671V21.0041H43.828V10.8419ZM83.2496 10.5717C81.4353 10.5717 80.5831 11.6528 80.5831 11.6528V5.95005H77.944V21.0041H80.1707C80.3906 21.0041 80.5556 20.8149 80.5556 20.6257V20.1663C80.5556 20.1663 81.4078 21.2744 83.2222 21.2744C86.2187 21.2744 88.5554 19.0041 88.5554 15.923C88.5554 12.8419 86.2186 10.5717 83.2496 10.5717ZM82.8098 18.8149C81.7926 18.8149 80.9954 18.3014 80.5831 17.7068V14.0852C80.9954 13.5446 81.8751 12.9771 82.8098 12.9771C84.5692 12.9771 85.9163 14.0582 85.9163 15.896C85.9163 17.7338 84.5692 18.8149 82.8098 18.8149ZM76.5694 14.9771V21.0311H73.9303V15.2744C73.9303 13.5987 73.3805 12.923 71.896 12.923C71.0988 12.923 70.274 13.3284 69.7517 13.923V21.0041H67.1126V10.8419H69.2019C69.4218 10.8419 69.5868 11.0311 69.5868 11.2203V11.6528C70.3565 10.869 71.3737 10.5717 72.3908 10.5717C73.5454 10.5717 74.5076 10.896 75.2774 11.5446C76.212 12.3014 76.5694 13.2744 76.5694 14.9771ZM60.7073 10.5717C58.8929 10.5717 58.0407 11.6528 58.0407 11.6528V5.95005H55.4016V21.0041H57.6283C57.8483 21.0041 58.0132 20.8149 58.0132 20.6257V20.1663C58.0132 20.1663 58.8654 21.2744 60.6798 21.2744C63.6763 21.2744 66.013 19.0041 66.013 15.923C66.0405 12.8419 63.7038 10.5717 60.7073 10.5717ZM60.2674 18.8149C59.2503 18.8149 58.4531 18.3014 58.0407 17.7068V14.0852C58.4531 13.5446 59.3328 12.9771 60.2674 12.9771C62.0268 12.9771 63.3739 14.0582 63.3739 15.896C63.3739 17.7338 62.0268 18.8149 60.2674 18.8149ZM53.1199 10.5717C53.9171 10.5717 54.3294 10.7068 54.3294 10.7068V13.1122C54.3294 13.1122 52.1302 12.3825 50.7557 13.923V21.0311H48.1166V10.8419H50.3433C50.5632 10.8419 50.7282 11.0311 50.7282 11.2203V11.6528C51.223 11.0852 52.2951 10.5717 53.1199 10.5717ZM25.7116 20.0852C25.5742 19.7609 25.4367 19.4095 25.2993 19.1122C25.0793 18.6257 24.8594 18.1663 24.667 17.7338L24.6395 17.7068C22.7426 13.6528 20.7083 9.54464 18.5641 5.49059L18.4816 5.32843C18.2617 4.92302 18.0417 4.49059 17.8218 4.05816C17.5469 3.57167 17.272 3.05816 16.8321 2.57167C15.9524 1.49059 14.6879 0.895996 13.3408 0.895996C11.9663 0.895996 10.7292 1.49059 9.82201 2.51762C9.40965 3.0041 9.10725 3.51762 8.83235 4.0041C8.61242 4.43654 8.3925 4.86897 8.17257 5.27437L8.0901 5.43654C5.97332 9.49059 3.91151 13.5987 2.01466 17.6528L1.98717 17.7068C1.79473 18.1392 1.57481 18.5987 1.35488 19.0852C1.21743 19.3825 1.07997 19.7068 0.94252 20.0582C0.585141 21.0582 0.475178 22.0041 0.612631 22.9771C0.915029 25.0041 2.28956 26.7068 4.18642 27.4636C4.90118 27.7609 5.64343 27.896 6.41317 27.896C6.63309 27.896 6.908 27.869 7.12793 27.8419C8.03512 27.7338 8.9698 27.4365 9.877 26.923C11.0041 26.3014 12.0763 25.4095 13.2858 24.1122C14.4954 25.4095 15.5951 26.3014 16.6947 26.923C17.6019 27.4365 18.5366 27.7338 19.4438 27.8419C19.6637 27.869 19.9386 27.896 20.1585 27.896C20.9283 27.896 21.698 27.7609 22.3853 27.4636C24.3096 26.7068 25.6567 24.9771 25.9591 22.9771C26.179 22.0311 26.069 21.0852 25.7116 20.0852ZM13.3133 21.4906C11.8288 19.6528 10.8667 17.923 10.5368 16.4636C10.3993 15.8419 10.3718 15.3014 10.4543 14.8149C10.5093 14.3825 10.6742 14.0041 10.8942 13.6798C11.4165 12.95 12.2962 12.4906 13.3133 12.4906C14.3305 12.4906 15.2377 12.923 15.7325 13.6798C15.9524 14.0041 16.1174 14.3825 16.1724 14.8149C16.2548 15.3014 16.2273 15.869 16.0899 16.4636C15.76 17.896 14.7978 19.6257 13.3133 21.4906ZM24.2821 22.7609C24.0897 24.1663 23.1275 25.3825 21.7805 25.923C21.1207 26.1933 20.4059 26.2744 19.6912 26.1933C19.0039 26.1122 18.3166 25.896 17.6019 25.4906C16.6122 24.95 15.6226 24.1122 14.4679 22.869C16.2823 20.6798 17.382 18.6798 17.7943 16.896C17.9867 16.0582 18.0142 15.3014 17.9318 14.5987C17.8218 13.923 17.5744 13.3014 17.1895 12.7609C16.3373 11.5446 14.9078 10.8419 13.3133 10.8419C11.7189 10.8419 10.2894 11.5717 9.43714 12.7609C9.05227 13.3014 8.80486 13.923 8.69489 14.5987C8.58493 15.3014 8.61242 16.0852 8.83235 16.896C9.24471 18.6798 10.3718 20.7068 12.1587 22.896C11.0316 24.1392 10.0144 24.9771 9.02478 25.5176C8.31003 25.923 7.62276 26.1392 6.93549 26.2203C6.19324 26.3014 5.47848 26.1933 4.8462 25.95C3.49915 25.4095 2.53698 24.1933 2.34454 22.7879C2.26207 22.1122 2.31705 21.4365 2.59196 20.6798C2.67443 20.4095 2.81189 20.1392 2.94934 19.8149C3.14177 19.3825 3.3617 18.923 3.58163 18.4636L3.60912 18.4095C5.50597 14.3825 7.54029 10.2744 9.65707 6.27437L9.73954 6.11221C9.95947 5.70681 10.1794 5.27437 10.3993 4.86897C10.6192 4.43654 10.8667 4.03113 11.1691 3.67978C11.7464 3.03113 12.5161 2.67978 13.3683 2.67978C14.2205 2.67978 14.9903 3.03113 15.5676 3.67978C15.87 4.03113 16.1174 4.43654 16.3373 4.86897C16.5572 5.27437 16.7772 5.70681 16.9971 6.11221L17.0796 6.27437C19.1688 10.3014 21.2032 14.4095 23.1 18.4365V18.4636C23.3199 18.896 23.5124 19.3825 23.7323 19.8149C23.8698 20.1392 24.0072 20.4095 24.0897 20.6798C24.3096 21.3825 24.3921 22.0582 24.2821 22.7609Z" fill="#7A857D"/>
</svg>
