<svg width="67" height="33" viewBox="0 0 67 33" fill="none" xmlns="http://www.w3.org/2000/svg">
<path d="M17.6226 18.6897C17.8243 18.4463 18.0084 18.2429 18.1717 18.024C19.1275 16.7425 19.9048 15.3529 20.6405 13.9376C21.7054 11.8887 22.7589 9.83358 23.8517 7.79957C24.5924 6.421 25.4474 5.10999 26.3784 3.84975C26.7257 3.37962 27.0385 2.88393 27.3898 2.41693C27.6082 2.12653 27.8634 1.86272 28.113 1.59723C28.2844 1.41487 28.5023 1.33403 28.7512 1.41462C29.3058 1.59415 29.8651 1.7623 30.4092 1.96992C30.9492 2.1759 31.1648 2.62654 31.2049 3.17736C31.2482 3.77258 31.1375 4.34837 30.9149 4.89243C30.384 6.19016 29.8778 7.50157 29.2704 8.76355C28.2818 10.8173 27.2057 12.8287 26.1945 14.8719C25.3836 16.5104 24.7008 18.2047 24.1169 19.9382C23.8636 20.6905 23.673 21.4535 23.7021 22.2534C23.7252 22.8849 23.9043 23.4364 24.5462 23.7184C24.8671 23.8593 25.1928 23.8774 25.5312 23.7932C26.2886 23.6048 26.9258 23.2419 27.4487 22.6417C28.319 21.6429 28.9857 20.5098 29.6801 19.394C30.6405 17.8508 31.4453 16.2293 32.0595 14.5176C32.1584 14.2419 32.3132 14.1118 32.5913 14.0946C32.9549 14.0721 33.3186 14.0216 33.6816 14.0268C34.0094 14.0315 34.1615 14.15 34.1705 14.4703C34.1836 14.9326 34.175 15.4098 34.0752 15.8582C33.8596 16.827 33.5712 17.7794 33.3291 18.7427C33.0444 19.8755 32.7669 21.0104 32.509 22.1496C32.4323 22.4886 32.4147 22.8444 32.404 23.1935C32.3982 23.3844 32.4633 23.5775 32.5087 23.8411C32.7783 23.6798 32.9834 23.5757 33.1684 23.4434C34.448 22.5282 35.5385 21.4084 36.5888 20.2478C36.6628 20.1661 36.7096 20.0069 36.6884 19.8997C36.2058 17.4664 36.6429 15.0919 37.1963 12.7407C37.8327 10.0372 38.8621 7.47909 40.2765 5.08061C40.9495 3.93914 41.7603 2.90919 42.7178 1.99662C42.97 1.75628 43.263 1.55805 43.5419 1.34655C44.4737 0.639767 45.4963 0.597109 46.5813 0.908939C47.1141 1.06207 47.4292 1.39518 47.5825 1.90966C47.7352 2.422 47.7633 2.94259 47.6997 3.47189C47.568 4.56827 47.2688 5.61865 46.8395 6.63349C45.9368 8.76748 44.8375 10.7971 43.5261 12.7053C42.2842 14.5124 40.9987 16.2896 39.57 17.9571C39.4411 18.1076 39.3642 18.2576 39.3555 18.4636C39.3233 19.2264 39.3585 19.9822 39.5155 20.7308C39.5819 21.0476 39.7228 21.3024 40.0386 21.4385C40.31 21.5554 40.5617 21.5921 40.808 21.3769C41.1812 21.0508 41.5701 20.7422 41.9352 20.4075C42.0163 20.3332 42.071 20.1772 42.0615 20.0653C41.9715 19.0041 42.1881 17.9994 42.6037 17.0324C43.1204 15.8301 43.7475 14.6979 44.707 13.7792C45.6343 12.8913 46.7185 12.4416 48.0123 12.5919C48.6052 12.6608 49.1976 12.7476 49.7823 12.8657C49.9845 12.9065 50.1908 13.036 50.3456 13.1787C50.632 13.4431 50.543 13.7466 50.1701 13.8785C49.9503 13.9561 49.7383 13.9422 49.5408 13.8145C49.4552 13.759 49.3762 13.6931 49.2963 13.6293C48.8663 13.2858 48.848 13.2778 48.4035 13.6261C48.1862 13.7963 47.9778 13.9854 47.7967 14.1933C47.1223 14.9675 46.5132 15.7913 46.1035 16.7389C45.5812 17.9473 45.1208 19.1782 44.9326 20.4922C44.9119 20.6365 44.8994 20.7822 44.8896 20.9278C44.8869 20.9679 44.9079 21.0097 44.9352 21.1207C45.1317 20.9497 45.3119 20.8158 45.4651 20.6559C46.1754 19.9145 46.7963 19.1038 47.3274 18.224C47.8707 17.3242 48.4705 16.4559 48.8331 15.4573C48.9502 15.1351 49.1707 14.9608 49.5364 14.9926C49.768 15.0128 50.0029 14.991 50.2356 15.0026C50.4784 15.0147 50.6124 15.1611 50.6204 15.3975C50.6293 15.6592 50.6371 15.9249 50.6029 16.1833C50.5341 16.7042 50.4298 17.2204 50.3525 17.7403C50.2515 18.419 50.1525 19.0983 50.0734 19.7797C50.042 20.0497 50.0101 20.3328 50.1733 20.6196C50.41 20.5551 50.5655 20.3801 50.7281 20.2261C51.584 19.4159 52.3096 18.4956 52.8657 17.4613C53.7582 15.8014 54.6023 14.1155 55.4697 12.4421C55.7118 11.9751 55.9659 11.5142 56.211 11.0488C56.3394 10.805 56.5179 10.6741 56.8105 10.7139C57.1716 10.763 57.5403 10.7663 57.8969 10.8353C58.435 10.9395 58.6375 11.2058 58.6602 11.7457C58.6806 12.2351 58.5892 12.7079 58.4293 13.1653C58.1209 14.0478 57.7982 14.9254 57.4813 15.805C57.19 16.6134 56.8986 17.4217 56.6072 18.2301C56.635 18.2474 56.6628 18.2647 56.6905 18.282C56.7873 18.1381 56.89 17.9977 56.9801 17.8496C57.77 16.5512 58.5402 15.2404 59.3512 13.9553C60.0681 12.8195 60.7355 11.6448 61.6354 10.6368C62.131 10.0817 62.67 9.5652 63.1932 9.03501C63.5823 8.64075 64.0389 8.47817 64.5886 8.64433C64.8814 8.73283 65.1834 8.79433 65.47 8.89893C65.8475 9.0368 66.062 9.33382 66.093 9.72723C66.1145 10.0002 66.1105 10.2884 66.0456 10.5521C65.9169 11.0756 65.7841 11.6066 65.572 12.0996C64.8214 13.844 64.0492 15.5794 63.2607 17.3071C62.6359 18.6763 61.9748 20.029 61.3316 21.3898C61.2835 21.4915 61.2495 21.5998 61.1967 21.7367C61.3788 21.7746 61.5347 21.8013 61.6877 21.8398C62.1829 21.9643 62.683 22.0742 63.1693 22.2275C63.4588 22.3189 63.7413 22.4562 64 22.6165C64.756 23.0849 65.0195 23.807 64.7613 24.6578C64.5897 25.2233 64.3126 25.7372 63.9425 26.1974C63.3594 26.9225 62.6602 27.515 61.8582 27.9851C60.7645 28.6262 59.6067 28.6585 58.4307 28.2881C57.5476 28.0101 57.0192 27.3899 56.8553 26.4675C56.7303 25.7646 56.7872 25.068 56.9265 24.3771C57.0298 23.8648 57.1651 23.359 57.2956 22.8112C57.1642 22.8273 57.0531 22.8292 56.9482 22.8556C54.9366 23.3631 52.9147 23.8344 50.9181 24.3953C49.2187 24.8727 47.5289 25.4009 45.871 26.0056C44.4052 26.5401 42.9816 27.1938 41.5531 27.8261C39.4971 28.7362 37.4561 29.6801 35.404 30.5992C33.6144 31.4007 31.7178 31.8155 29.79 32.1011C28.279 32.325 26.7652 32.3297 25.2472 32.139C23.3716 31.9034 21.5902 31.3911 19.9317 30.4655C17.7344 29.2392 16.5748 27.3685 16.4099 24.8694C16.3869 24.52 16.3773 24.1686 16.3856 23.8187C16.3898 23.6401 16.4474 23.4628 16.4824 23.2769C16.7167 23.3327 16.6982 23.4882 16.6948 23.6041C16.6393 25.4959 17.7325 26.6287 19.2577 27.4598C20.9903 28.4039 22.8667 28.8732 24.8183 29.0652C26.9335 29.2734 29.0174 29.0931 31.0777 28.5689C33.659 27.9122 36.1622 27.0181 38.665 26.1204C40.7289 25.3801 42.8167 24.7205 44.9634 24.258C47.4776 23.7163 49.9905 23.1679 52.5028 22.6173C53.3446 22.4328 54.1784 22.2092 55.0242 22.0463C55.8122 21.8945 56.6099 21.7904 57.406 21.6852C57.648 21.6532 57.7873 21.5759 57.8848 21.3325C59.1706 18.1219 60.8279 15.0973 62.5323 12.0967C62.9004 11.4485 63.2675 10.7996 63.6321 10.1494C63.7167 9.99864 63.7892 9.84109 63.8876 9.64659C63.6476 9.66658 63.5371 9.813 63.4162 9.92372C62.2988 10.9467 61.3403 12.0997 60.5761 13.4114C59.4874 15.2801 58.3984 17.1487 57.2988 19.0109C57.1142 19.3237 56.8931 19.6196 56.6574 19.8965C56.2395 20.3875 55.3431 20.6012 54.7291 20.3898C54.4392 20.29 54.2392 20.0829 54.2004 19.7975C54.1301 19.2801 54.0761 18.7543 54.089 18.2338C54.0996 17.8001 54.2148 17.3688 54.2859 16.9368C54.3064 16.8123 54.3343 16.6889 54.2985 16.5426C54.2217 16.6769 54.1416 16.8095 54.0685 16.9458C53.5427 17.9262 52.9677 18.8761 52.2872 19.7577C52.0737 20.0342 51.8377 20.296 51.5914 20.5441C50.9175 21.2231 50.0747 21.3867 49.1656 21.2726C48.2704 21.1602 47.7578 20.5612 47.7217 19.6254C47.7119 19.3703 47.7254 19.1143 47.7292 18.7677C47.5982 18.9438 47.5198 19.0442 47.4467 19.1483C47.0349 19.7344 46.625 20.3217 46.2129 20.9075C46.1541 20.9911 46.0864 21.0683 46.0237 21.1492C45.3745 21.9874 44.4964 22.1641 43.5109 22.0046C43.0558 21.9309 42.6998 21.6881 42.4501 21.2959C42.3967 21.212 42.3399 21.1302 42.2812 21.0422C41.9446 21.2552 41.6352 21.4764 41.3031 21.656C40.6429 22.0131 39.9522 22.2807 39.1825 22.2799C38.2338 22.279 37.523 21.8867 37.0855 21.0313C37.0657 20.9924 37.0445 20.9543 37.0223 20.9167C37.0151 20.9044 37.0026 20.8952 36.9658 20.8565C36.873 20.9373 36.7776 21.018 36.6847 21.1018C35.8823 21.8258 35.0936 22.5658 34.2735 23.2692C33.7168 23.7468 33.0958 24.1349 32.3611 24.2953C32.304 24.3078 32.2471 24.3216 32.1898 24.3327C31.0949 24.5458 30.4436 24.1215 30.2099 23.0211C29.9964 22.0153 30.103 21.0152 30.3022 20.0199C30.3409 19.8266 30.3785 19.633 30.4166 19.4396C30.3886 19.4294 30.3605 19.4193 30.3325 19.4091C30.1993 19.6151 30.069 19.8228 29.9326 20.0265C29.4286 20.7793 28.9544 21.5548 28.4088 22.2761C27.8418 23.0258 27.1653 23.6627 26.246 23.9969C25.285 24.3463 24.3425 24.7448 23.3028 24.8115C21.9572 24.8978 20.9519 24.1552 20.6457 22.8363C20.4438 21.9664 20.4896 21.093 20.6181 20.2218C20.819 18.8589 21.1818 17.5334 21.6089 16.2274C21.9722 15.1168 22.381 14.0211 22.7688 12.9185C22.8103 12.8007 22.8458 12.6809 22.8153 12.5303C22.7435 12.6621 22.6711 12.7936 22.6 12.9259C21.8043 14.4066 21.026 15.8973 20.0276 17.258C19.5317 17.9339 18.9936 18.5728 18.2761 19.0193C17.845 19.2876 17.3734 19.4908 16.9191 19.7217C16.8806 19.7412 16.8364 19.7502 16.7943 19.7623C15.8143 20.0446 15.2023 19.696 14.961 18.7011C14.7805 17.9571 14.745 17.2003 14.7896 16.4364C14.8926 14.6717 15.3089 12.9731 15.8498 11.2995C15.9396 11.0214 16.033 10.7445 16.1195 10.4654C16.143 10.3898 16.1477 10.3083 16.0991 10.2116C16.0363 10.3551 15.9663 10.496 15.9116 10.6426C15.2739 12.3542 14.6188 14.0595 14.0076 15.7805C13.2194 17.9996 12.1463 20.0701 10.8144 22.0048C9.40355 24.0541 7.62018 25.6825 5.31859 26.6936C4.68668 26.9712 4.03309 27.1799 3.3354 27.2035C2.05601 27.2468 1.14165 26.596 0.78975 25.3621C0.3934 23.9724 0.50427 22.5937 1.08875 21.2899C2.09295 19.0498 3.74612 17.4406 6.01444 16.4772C7.3433 15.9128 8.69453 15.9781 10.0499 16.35C10.2504 16.4051 10.4404 16.5389 10.6044 16.6738C10.7385 16.784 10.7603 16.9825 10.644 17.1098C10.5787 17.1814 10.4015 17.2008 10.2937 17.1723C10.1168 17.1256 9.92137 17.0553 9.79563 16.9319C9.62261 16.7622 9.46123 16.7452 9.24376 16.7946C8.45186 16.9742 7.69113 17.2387 7.04251 17.7331C5.35643 19.0182 4.22818 20.6404 4.05969 22.8213C4.01166 23.443 4.06779 24.05 4.31907 24.6248C4.54479 25.1411 4.87993 25.5484 5.4758 25.6582C5.74945 25.7086 6.00564 25.6759 6.21167 25.4769C6.74674 24.9604 7.31551 24.4718 7.79926 23.9105C9.23909 22.2398 10.354 20.3537 11.3547 18.3953C12.2144 16.7128 12.8944 14.9559 13.5728 13.1962C14.1193 11.7785 14.6854 10.3674 15.2839 8.97088C16.1039 7.05764 17.1433 5.26173 18.3036 3.53493C18.6459 3.02537 18.9881 2.51542 19.3158 1.99647C19.5068 1.69408 19.7492 1.58485 20.0934 1.69199C20.5946 1.84801 21.1009 1.98796 21.5992 2.15223C22.0075 2.28682 22.2189 2.59532 22.2141 3.01752C22.2093 3.43908 22.2162 3.87346 22.119 4.27851C21.9526 4.97207 21.7576 5.66703 21.4877 6.32574C20.9672 7.59603 20.3732 8.83599 19.8334 10.0987C19.2477 11.4688 18.6597 12.8393 18.1299 14.2314C17.835 15.0061 17.636 15.82 17.4355 16.6265C17.3452 16.99 17.3372 17.3783 17.3283 17.7562C17.3212 18.0619 17.3708 18.3682 17.6226 18.6897ZM39.6635 16.5788C39.7695 16.4424 39.88 16.3092 39.9807 16.1689C40.4835 15.4688 40.9919 14.7724 41.4835 14.0644C42.9863 11.8995 44.3122 9.63183 45.4025 7.23036C45.8257 6.29805 46.1886 5.34267 46.4198 4.342C46.5964 3.57769 46.6446 2.80855 46.449 2.04215C46.386 1.7955 46.2642 1.56392 46.1633 1.31021C45.7552 1.48223 45.5159 1.75787 45.276 2.02843C44.3272 3.09881 43.6085 4.31819 43.0133 5.60986C42.1201 7.548 41.3378 9.52946 40.7306 11.5786C40.2491 13.2033 39.8689 14.8494 39.6635 16.5788ZM60.8875 22.3731C60.2629 23.7065 59.8341 25.0071 59.5539 26.3565C59.5126 26.5556 59.4775 26.7641 59.4918 26.9644C59.5071 27.1777 59.5539 27.4004 59.6416 27.5943C59.8027 27.9504 59.9009 27.9735 60.2565 27.8245C61.5685 27.2749 62.4304 26.2746 63.0128 25.0167C63.2376 24.5312 63.2842 23.9989 63.1391 23.4722C63.0073 22.9938 62.7225 22.6017 62.2347 22.4866C61.8033 22.3847 61.3427 22.4065 60.8875 22.3731Z" fill="#7A857D"/>
<path d="M34.563 10.317C34.5429 10.4951 34.5414 10.6393 34.5086 10.776C34.352 11.4286 34.1811 12.0777 34.0284 12.7311C33.9783 12.9453 33.8686 13.0648 33.6519 13.0891C33.6085 13.094 33.5663 13.1083 33.523 13.1143C32.7161 13.2254 32.5781 13.1231 32.614 12.3175C32.6393 11.7513 32.7341 11.1883 32.7967 10.6238C32.8237 10.3806 32.9616 10.2747 33.2019 10.2531C33.6367 10.214 34.07 10.1579 34.563 10.317Z" fill="#7A857D"/>
</svg>
