<svg width="118" height="24" viewBox="0 0 118 24" fill="none" xmlns="http://www.w3.org/2000/svg">
<path d="M14.1103 5.22201L7.33285 9.54803L14.1103 13.8741L7.33285 18.2001L0.55542 13.838L7.33285 9.51198L0.55542 5.22201L7.33285 0.895996L14.1103 5.22201ZM7.2968 19.57L14.0742 15.244L20.8517 19.57L14.0742 23.896L7.2968 19.57ZM14.1103 13.838L20.8877 9.51198L14.1103 5.22201L20.8517 0.895996L27.6291 5.22201L20.8517 9.54803L27.6291 13.8741L20.8517 18.2001L14.1103 13.838Z" fill="#7A857D"/>
<path d="M32.9285 5.22196H38.4081C41.905 5.22196 44.789 7.24077 44.789 11.8552V12.8285C44.789 17.479 42.0852 19.5699 38.5162 19.5699H32.9285V5.22196ZM35.9927 7.81758V16.9383H38.336C40.3187 16.9383 41.6526 15.6405 41.6526 12.7564V11.9994C41.6526 9.11538 40.2466 7.81758 38.2278 7.81758H35.9927ZM46.4112 7.96178H48.8626L49.2592 10.6655C49.7278 8.82698 50.9175 7.85363 53.0805 7.85363H53.8376V10.9539H52.5758C50.0883 10.9539 49.4755 11.8191 49.4755 14.2706V19.606H46.4473V7.96178H46.4112ZM54.4504 14.0182V13.6938C54.4504 9.80033 56.9379 7.67337 60.3266 7.67337C63.7874 7.67337 66.2028 9.80033 66.2028 13.6938V14.0182C66.2028 17.8395 63.8595 19.8944 60.3266 19.8944C56.5774 19.8583 54.4504 17.8395 54.4504 14.0182ZM63.1024 13.9822V13.6938C63.1024 11.5307 62.0209 10.2329 60.2905 10.2329C58.5962 10.2329 57.4786 11.4226 57.4786 13.6938V13.9822C57.4786 16.0731 58.5601 17.2627 60.2905 17.2627C62.0209 17.2267 63.1024 16.0731 63.1024 13.9822ZM67.789 7.96178H70.3125L70.6009 10.1608C71.2137 8.68278 72.5115 7.67337 74.4222 7.67337C77.3783 7.67337 79.325 9.80033 79.325 13.7298V14.0543C79.325 17.8756 77.162 19.8944 74.4222 19.8944C72.5836 19.8944 71.3219 19.0652 70.709 17.7314V23.6075H67.7529L67.789 7.96178ZM76.2608 13.9822V13.7298C76.2608 11.4226 75.0711 10.269 73.4849 10.269C71.7905 10.269 70.673 11.5668 70.673 13.7298V13.9461C70.673 16.001 71.7545 17.2988 73.4488 17.2988C75.1792 17.2627 76.2608 16.1452 76.2608 13.9822ZM83.7952 17.443L83.5429 19.5699H80.9473V4.06836H83.9034V10.0166C84.5523 8.50253 85.8501 7.67337 87.6887 7.67337C90.4645 7.70942 92.5194 9.62008 92.5194 13.4775V13.838C92.5194 17.6953 90.5727 19.8944 87.6166 19.8944C85.6698 19.8583 84.4081 18.9571 83.7952 17.443ZM89.4191 13.838V13.5496C89.4191 11.4226 88.2655 10.2329 86.6432 10.2329C84.9849 10.2329 83.8313 11.5668 83.8313 13.5856V13.838C83.8313 16.001 84.9488 17.2627 86.6071 17.2627C88.3736 17.2627 89.4191 16.1452 89.4191 13.838ZM93.8172 14.0182V13.6938C93.8172 9.80033 96.3046 7.67337 99.6934 7.67337C103.154 7.67337 105.57 9.80033 105.57 13.6938V14.0182C105.57 17.8395 103.19 19.8944 99.6934 19.8944C95.9441 19.8583 93.8172 17.8395 93.8172 14.0182ZM102.505 13.9822V13.6938C102.505 11.5307 101.424 10.2329 99.6934 10.2329C97.999 10.2329 96.8814 11.4226 96.8814 13.6938V13.9822C96.8814 16.0731 97.9629 17.2627 99.6934 17.2627C101.424 17.2267 102.505 16.0731 102.505 13.9822ZM109.535 13.5496L105.461 7.96178H108.958L111.302 11.4586L113.681 7.96178H117.142L112.996 13.5135L117.358 19.5699H113.933L111.265 15.7126L108.67 19.5699H105.101L109.535 13.5496Z" fill="#7A857D"/>
</svg>
