<svg width="75" height="22" viewBox="0 0 75 22" fill="none" xmlns="http://www.w3.org/2000/svg">
<path d="M19.3818 0.0963745H22.8109V21.2673H19.3818V0.0963745Z" fill="#EBEBE0"/>
<path d="M34.7382 14.5582C34.7382 17.8382 32.0545 18.1363 31.16 18.1363C29.0727 18.1363 28.7745 16.1982 28.7745 15.1545V6.95453H25.3455V15.0054C25.3455 16.9436 25.9418 18.7327 27.1345 19.7763C28.1782 20.82 29.52 21.2673 31.16 21.2673C32.3527 21.2673 33.8436 20.9691 34.7382 20.0745V21.2673H38.1673V6.95453H34.7382V14.5582Z" fill="#EBEBE0"/>
<path d="M44.8764 1.73633H41.4473V6.95451H38.9127V10.2345H41.4473V21.2672H44.8764V10.2345H47.4109V6.95451H44.8764V1.73633Z" fill="#EBEBE0"/>
<path d="M58.1454 16.9436C57.4 17.54 56.3564 17.9873 55.3127 17.9873C52.9273 17.9873 51.2873 16.1982 51.2873 13.8127C51.2873 11.4273 52.9273 9.78728 55.3127 9.78728C56.3564 9.78728 57.4 10.0855 58.1454 10.8309L58.5927 11.2782L60.9782 9.04182L60.3818 8.59455C59.04 7.40182 57.2509 6.65637 55.3127 6.65637C51.1382 6.65637 48.0073 9.78728 48.0073 13.9618C48.0073 18.1364 51.1382 21.2673 55.3127 21.2673C57.2509 21.2673 59.04 20.5218 60.3818 19.3291L60.9782 18.8818L58.5927 16.4964L58.1454 16.9436Z" fill="#EBEBE0"/>
<path d="M73.0546 8.14728C72.0109 7.10365 70.9673 6.65638 69.3273 6.65638C68.1346 6.65638 66.9418 6.95455 66.0473 7.8491V0.0963745H62.6182V21.2673H66.0473V13.3655C66.0473 10.0855 68.2836 9.78728 69.1782 9.78728C71.2655 9.78728 71.1164 11.7255 71.1164 12.7691V21.1182H74.5455V12.9182C74.5455 10.98 74.0982 9.19092 73.0546 8.14728Z" fill="#EBEBE0"/>
<path d="M55.1636 16.3473C56.481 16.3473 57.549 15.2793 57.549 13.9618C57.549 12.6444 56.481 11.5764 55.1636 11.5764C53.8461 11.5764 52.7781 12.6444 52.7781 13.9618C52.7781 15.2793 53.8461 16.3473 55.1636 16.3473Z" fill="#EF4335"/>
<path d="M14.6109 16.049C13.4182 17.2418 11.6291 17.9872 9.69091 17.9872C5.96364 17.9872 3.28 15.0054 3.28 10.9799C3.28 6.95448 5.96363 3.97267 9.84 3.97267C11.6291 3.97267 13.4182 4.71812 14.76 6.05994L15.2073 6.50721L17.4436 4.27085L16.9964 3.82357C15.0582 1.88539 12.5236 0.841756 9.84 0.841756C4.17454 0.692665 0 5.16539 0 10.9799C0 16.7945 4.17454 21.2672 9.69091 21.2672C12.3745 21.2672 15.0582 20.2236 16.8473 18.2854L17.2945 17.8381L15.0582 15.6018L14.6109 16.049Z" fill="#EBEBE0"/>
</svg>
