<svg width="133" height="29" viewBox="0 0 133 29" fill="none" xmlns="http://www.w3.org/2000/svg">
<path d="M13.585 6.79249C13.585 10.5439 10.5439 13.585 6.79249 13.585C3.0411 13.585 0 10.5439 0 6.79249C0 3.0411 3.0411 0 6.79249 0C10.5439 0 13.585 3.0411 13.585 6.79249Z" fill="#06201B"/>
<path d="M14.4832 6.7925C14.4832 3.04111 17.5243 0 21.2757 0C25.0271 0 28.0682 3.0411 28.0682 6.79249C28.0682 10.5439 25.0271 13.585 21.2757 13.585H14.4832V6.7925Z" fill="#06201B"/>
<path d="M0 21.2757C0 17.5243 3.0411 14.4832 6.79249 14.4832H13.585V21.2757C13.585 25.0271 10.5439 28.0682 6.79249 28.0682C3.0411 28.0682 0 25.0271 0 21.2757Z" fill="#06201B"/>
<path d="M28.0682 21.2757C28.0682 25.0271 25.0271 28.0682 21.2757 28.0682C17.5243 28.0682 14.4832 25.0271 14.4832 21.2757C14.4832 17.5243 17.5243 14.4832 21.2757 14.4832C25.0271 14.4832 28.0682 17.5243 28.0682 21.2757Z" fill="#06201B"/>
<path d="M46.8638 28.0588C45.0128 28.0588 43.3257 27.5987 41.8026 26.6785C40.2901 25.7477 39.0843 24.3938 38.1852 22.6168C37.2967 20.8293 36.8525 18.6345 36.8525 16.0325C36.8525 13.4411 37.3232 11.2463 38.2645 9.4482C39.2059 7.65008 40.4699 6.28033 42.0565 5.33895C43.6536 4.39758 45.4359 3.9269 47.4032 3.9269C49.0427 3.9269 50.4283 4.19133 51.5601 4.72019C52.7024 5.24905 53.6279 5.92599 54.3366 6.75101C55.0559 7.57603 55.5794 8.44865 55.9073 9.36887C56.2352 10.2785 56.3992 11.1194 56.3992 11.8915C56.3992 11.9233 56.3992 11.955 56.3992 11.9867C56.3992 12.0185 56.3992 12.0502 56.3992 12.0819H51.6077C51.6077 12.0502 51.6077 12.0185 51.6077 11.9867C51.6077 11.955 51.6077 11.9233 51.6077 11.8915C51.6077 11.405 51.5178 10.9237 51.338 10.4477C51.1582 9.96119 50.8884 9.52753 50.5288 9.14675C50.1798 8.76597 49.7408 8.45923 49.2119 8.22653C48.6937 7.99383 48.0908 7.87749 47.4032 7.87749C46.4725 7.87749 45.584 8.14192 44.7378 8.67078C43.8916 9.19964 43.1988 10.0617 42.6594 11.2569C42.1199 12.4416 41.8502 14.0334 41.8502 16.0325C41.8502 17.5556 41.9983 18.8355 42.2945 19.872C42.6012 20.9086 43.0084 21.7389 43.5161 22.363C44.0238 22.9765 44.6003 23.4207 45.2455 23.6957C45.9013 23.9707 46.5782 24.1082 47.2763 24.1082C48.2388 24.1082 49.0427 23.9496 49.6879 23.6322C50.3437 23.3043 50.8567 22.9024 51.2269 22.4264C51.5971 21.9505 51.8351 21.4798 51.9409 21.0144V19.4913H47.3081V15.9373H56.304V27.678H53.7178L53.2736 25.0919C53.189 25.2929 53.0092 25.5573 52.7342 25.8852C52.4592 26.2131 52.0678 26.5463 51.5601 26.8847C51.063 27.2126 50.423 27.4876 49.6403 27.7098C48.8682 27.9425 47.9427 28.0588 46.8638 28.0588ZM60.2474 27.678V10.8285H65.1816V16.6354L64.1662 16.0008C64.2826 15.2075 64.4941 14.4777 64.8009 13.8113C65.1076 13.1449 65.5042 12.5685 65.9908 12.0819C66.4773 11.5848 67.0538 11.1987 67.7202 10.9237C68.3971 10.6487 69.1692 10.5112 70.0366 10.5112C70.7135 10.5112 71.2424 10.5641 71.6232 10.6699C72.0145 10.7651 72.2578 10.8391 72.353 10.892L71.5438 15.3027C71.4486 15.2498 71.2371 15.1652 70.9092 15.0488C70.5813 14.9325 70.1582 14.8743 69.6399 14.8743C68.7938 14.8743 68.0851 15.0171 67.5139 15.3027C66.9427 15.5883 66.4826 15.9691 66.1336 16.445C65.7951 16.9104 65.5518 17.4287 65.4038 17.9999C65.2557 18.571 65.1816 19.1475 65.1816 19.7292V27.678H60.2474ZM74.6523 27.678V10.8285H79.5231V27.678H74.6523ZM77.0798 8.08374C76.3182 8.08374 75.6518 7.88277 75.0807 7.48084C74.5201 7.07891 74.2398 6.51302 74.2398 5.7832C74.2398 5.04279 74.5201 4.47162 75.0807 4.06969C75.6518 3.66776 76.3182 3.46679 77.0798 3.46679C77.8519 3.46679 78.5183 3.66776 79.0788 4.06969C79.65 4.47162 79.9356 5.04279 79.9356 5.7832C79.9356 6.5236 79.65 7.09477 79.0788 7.4967C78.5183 7.88806 77.8519 8.08374 77.0798 8.08374ZM93.6665 27.678V21.1572C93.6665 20.5331 93.6665 19.9937 93.6665 19.5389C93.6665 19.0735 93.6665 18.6874 93.6665 18.3807C93.6665 17.947 93.64 17.5186 93.5871 17.0955C93.5448 16.6724 93.4391 16.2811 93.2698 15.9215C93.1112 15.5513 92.8626 15.2604 92.5241 15.0488C92.1857 14.8267 91.7256 14.7157 91.1438 14.7157C90.6044 14.7157 90.139 14.832 89.7476 15.0647C89.3563 15.2868 89.0337 15.5988 88.7798 16.0008C88.5365 16.3921 88.3567 16.847 88.2404 17.3652C88.124 17.8729 88.0658 18.4071 88.0658 18.9677L86.7172 17.8571C86.7172 16.4292 86.9764 15.1652 87.4947 14.0652C88.013 12.9545 88.7481 12.0872 89.7 11.4632C90.6625 10.8285 91.7996 10.5112 93.1112 10.5112C94.5179 10.5112 95.6127 10.8127 96.3954 11.4156C97.1887 12.0079 97.744 12.8012 98.0613 13.7954C98.3892 14.7791 98.5531 15.8686 98.5531 17.0638C98.5531 17.5186 98.5531 18.1321 98.5531 18.9042C98.5531 19.6764 98.5531 20.6019 98.5531 21.6807V27.678H93.6665ZM83.1474 27.678V10.8285H88.0658V27.678H83.1474ZM104.138 27.678V21.173C104.138 20.5278 104.138 19.9725 104.138 19.5071C104.138 19.0417 104.138 18.6557 104.138 18.3489C104.138 17.8835 104.111 17.4393 104.059 17.0162C104.006 16.5825 103.895 16.1912 103.725 15.8421C103.556 15.4931 103.302 15.2181 102.964 15.0171C102.625 14.8161 102.165 14.7157 101.584 14.7157C101.044 14.7157 100.579 14.832 100.187 15.0647C99.8065 15.2868 99.4945 15.5936 99.2512 15.9849C99.008 16.3763 98.8281 16.8205 98.7118 17.3176C98.606 17.8148 98.5531 18.3331 98.5531 18.8725L97.2045 17.7778C97.2045 16.371 97.4584 15.1229 97.9661 14.0334C98.4844 12.944 99.2142 12.0872 100.156 11.4632C101.108 10.8285 102.245 10.5112 103.567 10.5112C104.942 10.5112 106.026 10.8021 106.819 11.3838C107.623 11.9656 108.194 12.743 108.533 13.7161C108.882 14.6786 109.056 15.7575 109.056 16.9527C109.056 17.4287 109.056 18.0422 109.056 18.7932C109.056 19.5441 109.056 20.4591 109.056 21.538V27.678H104.138ZM121.182 28.0429C119.362 28.0429 117.76 27.6674 116.374 26.9165C114.989 26.1655 113.904 25.1342 113.122 23.8226C112.35 22.5005 111.963 20.9774 111.963 19.2533C111.963 17.5398 112.35 16.0272 113.122 14.7157C113.904 13.3935 114.989 12.3675 116.374 11.6377C117.76 10.8973 119.362 10.5271 121.182 10.5271C123.001 10.5271 124.603 10.8973 125.989 11.6377C127.374 12.3675 128.453 13.3935 129.225 14.7157C130.008 16.0272 130.4 17.5398 130.4 19.2533C130.4 20.9774 130.008 22.5005 129.225 23.8226C128.453 25.1342 127.374 26.1655 125.989 26.9165C124.603 27.6674 123.001 28.0429 121.182 28.0429ZM121.182 24.1399C122.038 24.1399 122.784 23.939 123.419 23.537C124.053 23.1351 124.545 22.5692 124.894 21.8394C125.243 21.099 125.418 20.237 125.418 19.2533C125.418 18.2696 125.243 17.4181 124.894 16.6989C124.545 15.969 124.053 15.4085 123.419 15.0171C122.784 14.6257 122.038 14.4301 121.182 14.4301C120.335 14.4301 119.59 14.6257 118.944 15.0171C118.31 15.4085 117.818 15.969 117.469 16.6989C117.12 17.4181 116.945 18.2696 116.945 19.2533C116.945 20.237 117.12 21.099 117.469 21.8394C117.818 22.5692 118.31 23.1351 118.944 23.537C119.59 23.939 120.335 24.1399 121.182 24.1399Z" fill="#23272E"/>
</svg>
