<svg width="42" height="42" viewBox="0 0 42 42" fill="none" xmlns="http://www.w3.org/2000/svg">
<g clip-path="url(#clip0_3037_2035)">
<path d="M2.84753 31.2683V38.0764C2.84753 38.4906 3.18406 38.8357 3.60687 38.8357H8.87044C9.28462 38.8357 9.62977 38.4992 9.62977 38.0764V26.0996L5.80721 29.9222C4.99611 30.7246 3.96065 31.1906 2.84753 31.2683Z" fill="#7A857D"/>
<path d="M12.2529 26.0132V38.0762C12.2529 38.4904 12.5894 38.8356 13.0122 38.8356H18.2758C18.69 38.8356 19.0351 38.4991 19.0351 38.0762V30.9747C17.8357 30.9489 16.714 30.4743 15.8683 29.6287L12.2529 26.0132Z" fill="#7A857D"/>
<path d="M21.6583 30.2239V38.0761C21.6583 38.4903 21.9948 38.8355 22.4176 38.8355H27.6812C28.0953 38.8355 28.4405 38.4989 28.4405 38.0761V23.5884L22.409 29.6199C22.176 29.8529 21.9258 30.0514 21.6583 30.2239Z" fill="#7A857D"/>
<path d="M37.3368 14.6836L31.0637 20.9567V38.0763C31.0637 38.4905 31.4002 38.8356 31.823 38.8356H37.0866C37.5007 38.8356 37.8459 38.4991 37.8459 38.0763V15.1582C37.6733 15.0115 37.5439 14.8821 37.449 14.7958L37.3368 14.6836Z" fill="#7A857D"/>
<path d="M41.6426 3.56962C41.3924 3.30212 41.0127 3.16406 40.5295 3.16406C40.4863 3.16406 40.4346 3.16406 40.3914 3.16406C37.9408 3.27624 35.4989 3.39704 33.0483 3.50921C32.7204 3.52647 32.2717 3.54373 31.9179 3.89751C31.8058 4.00969 31.7195 4.13912 31.6504 4.29444C31.288 5.07966 31.7971 5.58876 32.0387 5.83036L32.6514 6.45164C33.0742 6.88308 33.5056 7.31452 33.9371 7.73733L19.1301 22.553L12.4772 15.9002C12.0803 15.5032 11.5453 15.2789 10.9758 15.2789C10.4063 15.2789 9.87998 15.5032 9.48305 15.9002L0.621274 24.7533C-0.207091 25.5817 -0.207091 26.9192 0.621274 27.7475L1.0182 28.1444C1.41512 28.5414 1.95011 28.7657 2.51961 28.7657C3.08911 28.7657 3.61547 28.5414 4.01239 28.1444L10.9758 21.181L17.6286 27.8338C18.0256 28.2307 18.5606 28.4551 19.1301 28.4551C19.6996 28.4551 20.2259 28.2307 20.6315 27.8338L37.3368 11.1284L39.2265 13.0095C39.4509 13.2339 39.7615 13.5445 40.2361 13.5445C40.4346 13.5445 40.633 13.4927 40.8401 13.3806C40.9782 13.3029 41.099 13.2166 41.2025 13.1131C41.5736 12.742 41.6426 12.2674 41.6599 11.8964C41.7289 10.3087 41.8065 8.72101 41.8842 7.12468L41.9964 4.7345C42.0223 4.23403 41.9101 3.84574 41.6426 3.56962Z" fill="#7A857D"/>
</g>
<defs>
<clipPath id="clip0_3037_2035">
<rect width="42" height="42" fill="white"/>
</clipPath>
</defs>
</svg>
