<svg width="32" height="32" viewBox="0 0 32 32" fill="none" xmlns="http://www.w3.org/2000/svg">
<g clip-path="url(#clip0_3037_2017)">
<path d="M18.1764 21.2569C18.0569 21.126 17.9057 21.0281 17.7495 20.9466C17.4093 20.7692 17.0373 20.6616 16.6678 20.5645V23.427C17.2674 23.3592 17.9558 23.1416 18.2706 22.5818C18.4209 22.3144 18.4508 21.9859 18.3896 21.6883C18.3564 21.527 18.2878 21.3789 18.1764 21.2569Z" fill="#B1FF84"/>
<path d="M18.2675 22.5873C18.2687 22.5853 18.2693 22.584 18.2706 22.5818C18.2696 22.5836 18.2685 22.5854 18.2675 22.5873Z" fill="#B1FF84"/>
<path d="M13.8555 16.6809C13.7524 16.8315 13.6877 17.0025 13.6699 17.1842C13.652 17.3664 13.662 17.569 13.7312 17.7405C13.7971 17.9039 13.9351 18.0245 14.0776 18.1216C14.2375 18.2303 14.4133 18.3153 14.5923 18.3873C14.7426 18.4477 14.9115 18.5056 15.0937 18.5614V15.9712C14.6335 16.0694 14.1308 16.279 13.8555 16.6809Z" fill="#B1FF84"/>
<path d="M18.2826 22.5605C18.2788 22.5672 18.2747 22.5743 18.2708 22.5816C18.2754 22.573 18.2791 22.5667 18.2826 22.5605Z" fill="#B1FF84"/>
<path d="M18.2976 22.5339C18.2986 22.5321 18.2987 22.5319 18.2976 22.5339V22.5339Z" fill="#B1FF84"/>
<path d="M17.6763 6.96269C20.1106 4.91775 21.7372 0.310815 20.7362 0.109318C19.4062 -0.158515 16.5179 1.0159 15.1219 1.22282C13.1418 1.46189 10.9853 -0.924293 9.77483 0.405765C8.79061 1.48719 10.4804 5.41999 13.1242 7.13331C5.23664 11.0099 -5.84989 30.4709 13.4911 31.883C40.2528 33.8369 26.8523 10.7404 17.6763 6.96269ZM19.9746 22.3105C19.8923 23.0692 19.4903 23.7553 18.8892 24.2211C18.2546 24.713 17.4587 24.9417 16.6678 25.0058V25.8441C16.6678 26.0684 16.5698 26.2853 16.4019 26.4338C16.1711 26.638 15.832 26.6884 15.5519 26.5594C15.2753 26.4321 15.0936 26.1485 15.0936 25.8441V24.9279C14.958 24.9021 14.8234 24.8715 14.6903 24.835C13.9512 24.6319 13.2656 24.236 12.7648 23.6504C12.5154 23.3585 12.312 23.0272 12.1713 22.6696C12.1346 22.5762 12.1018 22.481 12.0731 22.3848C12.0472 22.2977 12.0204 22.2091 12.0111 22.1183C11.9955 21.966 12.0257 21.8106 12.0967 21.6749C12.2426 21.3957 12.5501 21.2271 12.8641 21.2552C13.1732 21.2826 13.444 21.497 13.5413 21.7916C13.5713 21.8823 13.5916 21.9753 13.6252 22.0651C13.6586 22.1542 13.6989 22.2409 13.7463 22.3234C13.8398 22.4859 13.9569 22.6357 14.0919 22.7658C14.37 23.0338 14.7243 23.2079 15.0936 23.3115V20.1971C14.3715 20.0101 13.626 19.7686 13.0296 19.305C12.7398 19.0795 12.4939 18.7994 12.3328 18.4679C12.1629 18.118 12.0925 17.7281 12.0896 17.341C12.0867 16.9478 12.1614 16.5582 12.3254 16.2C12.479 15.8646 12.7001 15.5635 12.9713 15.3139C13.5511 14.7802 14.3212 14.4826 15.0937 14.3733V14.3047V13.503C15.0937 13.2788 15.1917 13.0618 15.3596 12.9133C15.5904 12.7092 15.9294 12.6587 16.2096 12.7878C16.4861 12.9151 16.6679 13.1987 16.6679 13.503V14.3047V14.3685C16.7708 14.3815 16.8734 14.397 16.9755 14.4155C17.7341 14.5528 18.476 14.866 19.0307 15.4129C19.2935 15.6719 19.5086 15.9806 19.6599 16.3171C19.7021 16.411 19.7391 16.5071 19.7711 16.6051C19.8009 16.6964 19.8309 16.7905 19.8451 16.8858C19.8679 17.038 19.8447 17.1952 19.7796 17.3344C19.6461 17.6196 19.3469 17.8013 19.0321 17.7878C18.7228 17.7743 18.4425 17.5729 18.3317 17.2837C18.2987 17.1977 18.2823 17.1067 18.2486 17.0209C18.2146 16.9341 18.1707 16.8513 18.12 16.7731C18.0215 16.621 17.8939 16.4906 17.7482 16.3831C17.4327 16.1501 17.05 16.0287 16.6677 15.9609V18.9413C17.1221 19.0501 17.5769 19.1688 18.0122 19.3405C18.6703 19.6 19.2938 19.9978 19.653 20.6252C19.5973 20.5275 19.543 20.4322 19.6549 20.6285C19.7646 20.8212 19.7122 20.7294 19.6571 20.6327C19.9429 21.1363 20.0368 21.7385 19.9746 22.3105Z" fill="#B1FF84"/>
<path d="M18.2592 22.6021C18.2546 22.6103 18.2506 22.6175 18.2474 22.623C18.2501 22.6182 18.2542 22.6111 18.2592 22.6021Z" fill="#B1FF84"/>
</g>
<defs>
<clipPath id="clip0_3037_2017">
<rect width="32" height="32" fill="white"/>
</clipPath>
</defs>
</svg>
