<svg width="32" height="32" viewBox="0 0 32 32" fill="none" xmlns="http://www.w3.org/2000/svg">
<path d="M16 12.9146C19.003 12.9146 21.4375 10.4801 21.4375 7.47705C21.4375 4.474 19.003 2.03955 16 2.03955C12.997 2.03955 10.5625 4.474 10.5625 7.47705C10.5625 10.4801 12.997 12.9146 16 12.9146Z" fill="#B1FF84"/>
<path d="M27 12.9146C28.8985 12.9146 30.4375 11.3755 30.4375 9.47705C30.4375 7.57857 28.8985 6.03955 27 6.03955C25.1015 6.03955 23.5625 7.57857 23.5625 9.47705C23.5625 11.3755 25.1015 12.9146 27 12.9146Z" fill="#B1FF84"/>
<path d="M5 12.9146C6.89848 12.9146 8.4375 11.3755 8.4375 9.47705C8.4375 7.57857 6.89848 6.03955 5 6.03955C3.10152 6.03955 1.5625 7.57857 1.5625 9.47705C1.5625 11.3755 3.10152 12.9146 5 12.9146Z" fill="#B1FF84"/>
<path d="M8.38688 16.0015C7.03375 14.8929 5.80831 15.0396 4.24375 15.0396C1.90375 15.0396 0 16.9321 0 19.2578V26.0834C0 27.0934 0.824375 27.9146 1.83812 27.9146C6.21475 27.9146 5.6875 27.9938 5.6875 27.7259C5.6875 22.8893 5.11462 19.3423 8.38688 16.0015Z" fill="#B1FF84"/>
<path d="M17.4881 15.0645C14.7554 14.8365 12.3801 15.0671 10.3312 16.7582C6.90269 19.5045 7.5625 23.2022 7.5625 27.7257C7.5625 28.9225 8.53625 29.9145 9.75125 29.9145C22.9439 29.9145 23.4689 30.34 24.2512 28.6076C24.5078 28.0217 24.4375 28.2079 24.4375 22.6032C24.4375 18.1516 20.5829 15.0645 17.4881 15.0645Z" fill="#B1FF84"/>
<path d="M27.7563 15.0395C26.1831 15.0395 24.9644 14.8942 23.6131 16.0014C26.8609 19.3174 26.3125 22.6223 26.3125 27.7257C26.3125 27.9954 25.8748 27.9145 30.0963 27.9145C31.1463 27.9145 32 27.0639 32 26.0182V19.2576C32 16.932 30.0963 15.0395 27.7563 15.0395Z" fill="#B1FF84"/>
</svg>
