<svg width="38" height="38" viewBox="0 0 38 38" fill="none" xmlns="http://www.w3.org/2000/svg">
<path d="M19.9207 14.8272C18.1888 15.072 16.6761 16.698 16.6615 16.7126C16.6398 16.7352 16.6152 16.7548 16.5884 16.7711C14.2354 18.2984 12.909 17.1365 12.8542 17.067C11.3488 15.7115 12.73 13.4388 12.7884 13.3438C13.4051 12.3189 14.1518 11.3781 15.01 10.5449H8.6194L5.84613 19.6942C5.87592 19.7107 5.90302 19.7316 5.92651 19.7563C10.2307 24.6232 15.9454 28.942 18.1998 30.5717C18.4344 30.7452 18.7262 30.8231 19.016 30.7896C19.3059 30.7562 19.5723 30.6139 19.7612 30.3915C19.9502 30.1691 20.0476 29.8833 20.0338 29.5918C20.02 29.3003 19.896 29.025 19.6869 28.8215L16.5848 25.7193C16.5167 25.6509 16.4785 25.5583 16.4785 25.4618C16.4785 25.3652 16.5167 25.2726 16.5848 25.2042C16.6188 25.1699 16.6592 25.1427 16.7037 25.1242C16.7482 25.1056 16.796 25.0961 16.8442 25.0961C16.8924 25.0961 16.9402 25.1056 16.9847 25.1242C17.0293 25.1427 17.0697 25.1699 17.1036 25.2042L18.7552 26.8557L20.2167 28.3172L20.9475 29.0663C21.2096 29.3216 21.5614 29.4641 21.9273 29.4632C22.2932 29.4623 22.6443 29.3181 22.9052 29.0615C23.1661 28.8049 23.3161 28.4563 23.3231 28.0904C23.33 27.7246 23.1934 27.3705 22.9425 27.1042L20.0961 24.1336L19.5554 23.5745C19.5211 23.5406 19.4939 23.5002 19.4754 23.4556C19.4568 23.4111 19.4473 23.3634 19.4473 23.3151C19.4473 23.2669 19.4568 23.2191 19.4754 23.1746C19.4939 23.1301 19.5211 23.0897 19.5554 23.0557C19.5893 23.0214 19.6297 22.9943 19.6743 22.9757C19.7188 22.9572 19.7666 22.9476 19.8148 22.9476C19.863 22.9476 19.9108 22.9572 19.9553 22.9757C19.9998 22.9943 20.0402 23.0214 20.0742 23.0557L24.2286 27.3672C24.4298 27.5663 24.6845 27.7027 24.9617 27.7599C25.2389 27.817 25.5267 27.7924 25.7902 27.6891C26.0537 27.5858 26.2816 27.4082 26.4461 27.1779C26.6106 26.9476 26.7047 26.6744 26.7169 26.3917C26.723 26.1924 26.6871 25.9942 26.6115 25.8097C26.536 25.6253 26.4225 25.4588 26.2784 25.3211L23.7865 22.9095L22.0509 21.2251C22.0123 21.1929 21.9807 21.153 21.9582 21.108C21.9357 21.063 21.9227 21.0138 21.9201 20.9636C21.9175 20.9133 21.9253 20.8631 21.943 20.816C21.9607 20.7689 21.9879 20.726 22.023 20.6899C22.0581 20.6538 22.1002 20.6253 22.1468 20.6063C22.1934 20.5873 22.2434 20.5781 22.2937 20.5793C22.344 20.5805 22.3935 20.592 22.4391 20.6133C22.4848 20.6345 22.5255 20.6649 22.5588 20.7026L27.4915 25.4782C27.6209 25.6111 27.7758 25.7164 27.947 25.7878C28.1181 25.8592 28.3019 25.8952 28.4874 25.8936C28.6728 25.8921 28.856 25.853 29.026 25.7787C29.1959 25.7045 29.349 25.5966 29.4762 25.4616C29.6033 25.3266 29.7018 25.1672 29.7656 24.9931C29.8295 24.819 29.8575 24.6338 29.8479 24.4486C29.8383 24.2634 29.7913 24.0821 29.7097 23.9155C29.6281 23.749 29.5137 23.6007 29.3732 23.4795L19.9207 14.8272Z" fill="#B1FF84"/>
<path d="M7.50501 8.40379C5.60815 7.55099 3.5398 7.14832 1.46155 7.22725V21.5576H3.69405C3.93232 21.5582 4.16428 21.4811 4.35482 21.338C4.54536 21.195 4.68409 20.9937 4.75001 20.7647L8.10424 9.71917C8.18091 9.46454 8.1624 9.19071 8.05215 8.94871C7.94191 8.70672 7.74745 8.51305 7.50501 8.40379Z" fill="#B1FF84"/>
<path d="M21.1046 9.11278C20.3166 8.78842 19.4362 8.76889 18.6346 9.05798C17.2352 9.56951 15.1927 10.7972 13.3986 13.7276C13.3986 13.7495 12.2769 15.5545 13.3329 16.5264C13.3694 16.5593 14.3121 17.3486 16.139 16.183C16.4021 15.9089 18.05 14.2574 19.9975 14.0784C20.0478 14.0741 20.0985 14.0804 20.1463 14.0968C20.1941 14.1131 20.238 14.1392 20.2752 14.1734L29.8519 22.9426C29.8957 22.9828 29.9359 23.0266 29.9761 23.0705C31.0723 22.9024 31.803 21.9012 32.015 21.5359L28.5438 12.0761L21.1046 9.11278Z" fill="#B1FF84"/>
<path d="M35.8077 8.97008C33.7236 8.95624 31.6565 9.34584 29.7204 10.1174C29.46 10.229 29.253 10.437 29.1426 10.6979C29.0323 10.9588 29.0272 11.2523 29.1285 11.5168L33.1952 22.5843C33.2746 22.7978 33.4171 22.9821 33.6038 23.1126C33.7904 23.2432 34.0124 23.3138 34.2402 23.3151H36.5385V8.98835C36.3558 8.97739 36.1037 8.97008 35.8077 8.97008Z" fill="#B1FF84"/>
</svg>
