<svg width="17" height="18" viewBox="0 0 17 18" fill="none" xmlns="http://www.w3.org/2000/svg">
<g clip-path="url(#clip0_3033_1988)">
<path d="M16.9489 5.1918C16.9075 4.28702 16.7638 3.66913 16.5537 3.12854C16.3403 2.56136 16.0057 2.04762 15.5733 1.62299C15.1488 1.19057 14.6349 0.855812 14.0677 0.642326C13.527 0.432343 12.9093 0.288765 12.0045 0.24765C11.098 0.206146 10.8084 0.196289 8.5 0.196289C6.1916 0.196289 5.90199 0.206146 4.99551 0.247391C4.09073 0.288765 3.47297 0.432472 2.93225 0.642586C2.36507 0.855942 1.85133 1.19057 1.4267 1.62299C0.994278 2.04749 0.659523 2.56123 0.446037 3.12841C0.236053 3.66913 0.0924759 4.28702 0.0513611 5.19167C0.00985718 6.09827 0 6.38776 0 8.69616C0 11.0047 0.00985718 11.2943 0.0513611 12.2008C0.0926056 13.1054 0.236313 13.7233 0.446426 14.264C0.659782 14.8311 0.994408 15.345 1.42683 15.7695C1.85133 16.2019 2.3652 16.5365 2.93238 16.7499C3.47297 16.9601 4.09086 17.1037 4.99564 17.1451C5.90224 17.1864 6.19173 17.1962 8.50013 17.1962C10.8085 17.1962 11.0981 17.1864 12.0046 17.1451C12.9094 17.1037 13.5272 16.9601 14.0679 16.7499C15.2096 16.3084 16.1122 15.4058 16.5537 14.264C16.7639 13.7233 16.9075 13.1054 16.9489 12.2008C16.9901 11.2942 17 11.0047 17 8.69629C17 6.38776 16.9901 6.09827 16.9489 5.1918ZM15.4188 12.1311C15.3811 12.9599 15.2426 13.41 15.1262 13.7094C14.8402 14.4508 14.2544 15.0367 13.513 15.3226C13.2135 15.439 12.7635 15.5775 11.9347 15.6152C11.0386 15.6562 10.7697 15.6648 8.5 15.6648C6.23013 15.6648 5.96139 15.6562 5.06516 15.6152C4.23651 15.5775 3.78645 15.439 3.48685 15.3226C3.11772 15.1863 2.78374 14.9691 2.50956 14.6867C2.2272 14.4125 2.00996 14.0787 1.87364 13.7094C1.7573 13.41 1.61878 12.9599 1.58104 12.1311C1.54018 11.2349 1.53149 10.966 1.53149 8.69642C1.53149 6.42667 1.54018 6.15794 1.58104 5.26158C1.61891 4.4328 1.7573 3.98274 1.87364 3.68327C2.00996 3.31401 2.22733 2.98003 2.50956 2.70585C2.78374 2.42349 3.11772 2.20625 3.48698 2.07006C3.78645 1.95359 4.23651 1.8152 5.06529 1.77733C5.96152 1.73647 6.23038 1.72778 8.5 1.72778H8.49987C10.7695 1.72778 11.0384 1.73647 11.9347 1.77746C12.7635 1.8152 13.2134 1.95372 13.513 2.07006C13.8821 2.20638 14.2161 2.42362 14.4903 2.70585C14.7727 2.98003 14.9899 3.31401 15.1261 3.68327C15.2426 3.98274 15.3811 4.4328 15.4188 5.26158C15.4597 6.15781 15.4684 6.42667 15.4684 8.69629C15.4684 10.966 15.4598 11.2348 15.4188 12.1311Z" fill="url(#paint0_linear_3033_1988)"/>
<path d="M8.49992 4.33105C6.08932 4.33105 4.13513 6.28537 4.13513 8.69597C4.13513 11.1066 6.08932 13.0608 8.49992 13.0608C10.9106 13.0608 12.8648 11.1066 12.8648 8.69597C12.8648 6.28537 10.9106 4.33105 8.49992 4.33105ZM8.49992 11.5293C6.93522 11.5291 5.66663 10.2607 5.66676 8.69584C5.66676 7.13114 6.93522 5.86255 8.50005 5.86255C10.0649 5.86268 11.3333 7.13114 11.3333 8.69584C11.3333 10.2607 10.0647 11.5293 8.49992 11.5293Z" fill="url(#paint1_linear_3033_1988)"/>
<path d="M14.0573 4.15876C14.0573 4.72205 13.6006 5.17872 13.0373 5.17872C12.4739 5.17872 12.0172 4.72205 12.0172 4.15876C12.0172 3.59534 12.4739 3.13867 13.0373 3.13867C13.6006 3.13867 14.0573 3.59534 14.0573 4.15876Z" fill="url(#paint2_linear_3033_1988)"/>
</g>
<defs>
<linearGradient id="paint0_linear_3033_1988" x1="1.42661" y1="15.7695" x2="15.5734" y2="1.62276" gradientUnits="userSpaceOnUse">
<stop stop-color="#FFD600"/>
<stop offset="0.5" stop-color="#FF0100"/>
<stop offset="1" stop-color="#D800B9"/>
</linearGradient>
<linearGradient id="paint1_linear_3033_1988" x1="5.41358" y1="11.7823" x2="11.5864" y2="5.6095" gradientUnits="userSpaceOnUse">
<stop stop-color="#FF6400"/>
<stop offset="0.5" stop-color="#FF0100"/>
<stop offset="1" stop-color="#FD0056"/>
</linearGradient>
<linearGradient id="paint2_linear_3033_1988" x1="12.316" y1="4.87993" x2="13.7585" y2="3.43747" gradientUnits="userSpaceOnUse">
<stop stop-color="#F30072"/>
<stop offset="1" stop-color="#E50097"/>
</linearGradient>
<clipPath id="clip0_3033_1988">
<rect width="17" height="17" fill="white" transform="translate(0 0.196289)"/>
</clipPath>
</defs>
</svg>
