<svg width="42" height="42" viewBox="0 0 42 42" fill="none" xmlns="http://www.w3.org/2000/svg">
<g clip-path="url(#clip0_3037_2044)">
<path d="M25.7877 36.7025V37.9296C25.7877 38.9062 25.0704 39.7185 24.137 39.8568L23.8346 40.9716C23.6704 41.5765 23.1259 42 22.4951 42H19.4963C18.8654 42 18.321 41.5765 18.1568 40.9716L17.863 39.8568C16.921 39.7099 16.2037 38.9062 16.2037 37.921V36.6938C16.2037 36.037 16.7309 35.5099 17.3877 35.5099H24.6037C25.2605 35.5185 25.7877 36.0457 25.7877 36.7025ZM31.3445 20.1617C31.3445 22.9531 30.2383 25.4852 28.4408 27.3432C27.0753 28.7605 26.1938 30.5667 25.9 32.4938C25.7704 33.3235 25.0531 33.937 24.2062 33.937H17.7852C16.9469 33.937 16.221 33.3321 16.1 32.5025C15.7975 30.5753 14.9074 28.7432 13.542 27.3346C11.779 25.5025 10.6815 23.0136 10.6556 20.2741C10.5951 14.5185 15.1753 9.86049 20.9309 9.81728C26.6778 9.77407 31.3445 14.4235 31.3445 20.1617ZM22.1667 13.8963C22.1667 13.2568 21.6482 12.7296 21 12.7296C16.8864 12.7296 13.5333 16.0741 13.5333 20.1963C13.5333 20.8358 14.0519 21.363 14.7 21.363C15.3395 21.363 15.8667 20.8444 15.8667 20.1963C15.8667 17.3617 18.1741 15.063 21 15.063C21.6482 15.063 22.1667 14.5444 22.1667 13.8963ZM21 6.42099C21.6395 6.42099 22.1667 5.90247 22.1667 5.25432V1.16667C22.1667 0.52716 21.6482 0 21 0C20.3519 0 19.8333 0.518519 19.8333 1.16667V5.25432C19.8333 5.90247 20.3605 6.42099 21 6.42099ZM7.26791 20.1531C7.26791 19.5136 6.74939 18.9864 6.10124 18.9864H2.01359C1.37408 18.9864 0.846924 19.5049 0.846924 20.1531C0.846924 20.7926 1.36544 21.3198 2.01359 21.3198H6.10124C6.74939 21.3198 7.26791 20.8012 7.26791 20.1531ZM39.9864 18.9864H35.8988C35.2593 18.9864 34.7321 19.5049 34.7321 20.1531C34.7321 20.7926 35.2506 21.3198 35.8988 21.3198H39.9864C40.6259 21.3198 41.1531 20.8012 41.1531 20.1531C41.1531 19.5136 40.6346 18.9864 39.9864 18.9864ZM9.64445 29.8667L6.74939 32.7617C6.29137 33.2198 6.29137 33.9543 6.74939 34.4123C6.97408 34.637 7.27655 34.7494 7.57038 34.7494C7.86421 34.7494 8.16668 34.637 8.39137 34.4123L11.2864 31.5173C11.7445 31.0593 11.7445 30.3247 11.2864 29.8667C10.837 29.4086 10.0938 29.4086 9.64445 29.8667ZM31.5346 10.7852C31.8284 10.7852 32.1309 10.6728 32.3556 10.4481L35.2506 7.55309C35.7087 7.09506 35.7087 6.36049 35.2506 5.90247C34.7926 5.44444 34.058 5.44444 33.6 5.90247L30.7049 8.79753C30.2469 9.25556 30.2469 9.99012 30.7049 10.4481C30.9383 10.6728 31.2321 10.7852 31.5346 10.7852ZM9.64445 10.4395C9.86915 10.6642 10.1716 10.7765 10.4654 10.7765C10.7593 10.7765 11.0617 10.6642 11.2864 10.4395C11.7445 9.98148 11.7445 9.24691 11.2864 8.78889L8.39137 5.89383C7.93334 5.4358 7.19878 5.4358 6.74075 5.89383C6.28273 6.35185 6.28273 7.08642 6.74075 7.54444L9.64445 10.4395ZM32.3556 29.8667C31.8975 29.4086 31.163 29.4086 30.7049 29.8667C30.2469 30.3247 30.2469 31.0593 30.7049 31.5173L33.6 34.4123C33.8247 34.637 34.1272 34.7494 34.421 34.7494C34.7148 34.7494 35.0173 34.637 35.242 34.4123C35.7 33.9543 35.7 33.2198 35.242 32.7617L32.3556 29.8667Z" fill="#7A857D"/>
</g>
<defs>
<clipPath id="clip0_3037_2044">
<rect width="42" height="42" fill="white"/>
</clipPath>
</defs>
</svg>
