<svg width="17" height="18" viewBox="0 0 17 18" fill="none" xmlns="http://www.w3.org/2000/svg">
<path d="M17 17.1966V10.9706C17 7.91067 16.3413 5.57324 12.7713 5.57324C11.05 5.57324 9.90255 6.50821 9.43505 7.40069H9.39254V5.84948H6.01379V17.1966H9.5413V11.5656C9.5413 10.0781 9.81755 8.6544 11.645 8.6544C13.4513 8.6544 13.4725 10.3331 13.4725 11.6506V17.1754H17V17.1966Z" fill="#0A69C8"/>
<path d="M0.276245 5.84766H3.80375V17.1948H0.276245V5.84766Z" fill="#0A69C8"/>
<path d="M2.04 0.196289C0.91375 0.196289 0 1.11001 0 2.23623C0 3.36244 0.91375 4.29741 2.04 4.29741C3.16625 4.29741 4.08 3.36244 4.08 2.23623C4.08 1.11001 3.16625 0.196289 2.04 0.196289Z" fill="#0A69C8"/>
</svg>
