<svg width="32" height="32" viewBox="0 0 32 32" fill="none" xmlns="http://www.w3.org/2000/svg">
<g clip-path="url(#clip0_3037_2013)">
<path d="M11.6666 23.4827V29.6667C11.6666 30.0987 11.944 30.4813 12.3546 30.6173C12.4573 30.6507 12.5626 30.6667 12.6666 30.6667C12.9786 30.6667 13.28 30.52 13.472 30.2587L17.0893 25.336L11.6666 23.4827Z" fill="#B1FF84"/>
<path d="M31.5801 0.185451C31.2734 -0.0318819 30.8707 -0.0612152 30.5374 0.113451L0.537393 15.7801C0.182726 15.9655 -0.0266074 16.3441 0.00272597 16.7428C0.0333926 17.1428 0.298726 17.4841 0.676059 17.6135L9.01606 20.4641L26.7774 5.27745L13.0334 21.8361L27.0107 26.6134C27.1147 26.6481 27.2241 26.6668 27.3334 26.6668C27.5147 26.6668 27.6947 26.6175 27.8534 26.5215C28.1067 26.3668 28.2787 26.1068 28.3227 25.8148L31.9894 1.14812C32.0441 0.774785 31.8867 0.404118 31.5801 0.185451Z" fill="#B1FF84"/>
</g>
<defs>
<clipPath id="clip0_3037_2013">
<rect width="32" height="32" fill="white"/>
</clipPath>
</defs>
</svg>
