<svg width="42" height="42" viewBox="0 0 42 42" fill="none" xmlns="http://www.w3.org/2000/svg">
<g clip-path="url(#clip0_3022_1248)">
<path d="M21.8859 20.1537C21.879 20.1465 21.8771 20.1369 21.87 20.1299L14.8478 13.1076V8.69519C14.8478 8.3683 14.718 8.05592 14.4874 7.82517L7.10455 0.36041C6.7537 0.00964405 6.22378 -0.0973247 5.7635 0.0937261C5.3033 0.283546 5.00405 0.732996 5.00405 1.23043V4.92184H1.23062C0.733263 4.92176 0.283814 5.22093 0.0939934 5.6812C-0.0970573 6.1414 0.00868095 6.67017 0.360759 7.02225L7.8256 14.487C8.05635 14.7178 8.36873 14.8475 8.69554 14.8475H13.1079L20.1301 21.8697C20.1372 21.8768 20.1468 21.8788 20.154 21.8857C20.6331 22.3429 21.3608 22.349 21.8462 21.8857C22.3574 21.3977 22.3459 20.6357 21.8859 20.1537Z" fill="#7A857D"/>
<path d="M21.0003 0.000488281C17.8518 0.000488281 14.875 0.801524 12.1944 2.05275L15.969 5.82733C17.5531 5.30053 19.2416 5.0044 21.0003 5.0044C29.8203 5.00431 36.9963 12.1804 36.9963 21.0003C36.9963 29.8202 29.8203 36.9963 21.0003 36.9963C12.1803 36.9963 5.00425 29.8203 5.00425 21.0003C5.00425 19.2416 5.30047 17.5531 5.82719 15.9689L2.0526 12.1944C0.801544 14.8751 0.000427246 17.8519 0.000427246 21.0003C0.000427246 32.5347 9.46593 42.0003 21.0003 42.0003C32.5346 42.0003 42.0002 32.5347 42.0002 21.0003C42.0002 9.466 32.5348 0.000488281 21.0003 0.000488281Z" fill="#7A857D"/>
<path d="M21.0001 9.92578C19.6995 9.92578 18.469 10.1924 17.3087 10.6061V12.0887L20.1533 14.9333C20.4327 14.8942 20.7101 14.8477 21.0001 14.8477C24.3923 14.8477 27.1524 17.6078 27.1524 21C27.1524 24.3922 24.3923 27.1523 21.0001 27.1523C17.6079 27.1523 14.8478 24.3922 14.8478 21C14.8478 20.7099 14.8944 20.4325 14.9334 20.1532L12.0889 17.3085H10.6062C10.1926 18.4688 9.92596 19.6993 9.92596 20.9999C9.92596 27.1066 14.8935 32.0741 21.0001 32.0741C27.1067 32.0741 32.0743 27.1066 32.0743 20.9999C32.0743 14.8933 27.1068 9.92578 21.0001 9.92578Z" fill="#7A857D"/>
</g>
<defs>
<clipPath id="clip0_3022_1248">
<rect width="42" height="42" fill="white"/>
</clipPath>
</defs>
</svg>
